<svg version="1.0" xmlns="http://www.w3.org/2000/svg" width="345.333" height="264" viewBox="0 0 259 198"><path fill="white" d="m213.8 62.9-.3 55.9-15.2-14.9-15.3-15V73c0-14.6-.2-16-1.8-16s-1.7 1.2-1.4 14.7l.3 14.8-3-3.2-3.1-3.2V40h10c6 0 10-.4 10-1s-8.1-1-22.2-1h-22.3l12-12c6.6-6.6 11.5-12 11-12-.6 0-6.4 5.4-13 12l-12 12h-11.9l4.7-4.8c2.6-2.6 4.7-5.2 4.7-5.7s-2.6 1.6-5.8 4.8l-5.8 5.7-35.4-.2-35.5-.3-.3-7.3C62 26.3 61.5 23 61 23s-1 3.3-1.2 7.2l-.3 7.3-6.7.3c-8.8.4-8.8 2 0 2.4l6.7.3.3 35.4.2 35.4L44.8 126c-8.4 8.1-15.1 15-14.8 15.3s7.1-6 15.3-13.9L60 113v6c0 5.6-.3 6.4-3 8.7-1.6 1.3-3 3-3 3.6s1.4-.2 3-1.8l3-2.9v22.2c0 14.6.4 22.2 1 22.2.7 0 1-7.6.8-23-.2-18.9-.1-22.9 1-22.5.9.3 14.7-12.5 34.9-32.2 18.4-18.1 33.9-32.8 34.4-32.8s9.4 8.1 19.9 18l19 18v15.1c0 8.3-.3 17.9-.6 21.3l-.7 6.1h-44c-24.2-.1-44.2.2-44.5.5s29.2.5 65.5.5c59.3 0 66.1.2 66.7 1.6.3.9.6 4.2.6 7.5 0 3.2.3 5.9.8 5.9.4 0 .5-2.7.4-6-.5-7.7.6-8.8 8.9-9.3l6.4-.3-6.6-.2c-5.1-.2-6.8-.6-7.3-1.8-.3-.9-.6-30.6-.6-66 0-41.9-.3-64.4-1-64.4-.6 0-1.1 19.8-1.2 55.9m-82-23.2c-.2.5-15.9 16.3-35.1 35.3L62 109.4l.2-34.4.3-34.5 34-.5c18.7-.3 34.4-.6 34.8-.8.5-.1.7.1.5.5m9.5.3h4.1l-2.9 3-2.9 3-2.8-2.7c-3.1-2.9-3.7-4.9-1.2-3.9.9.3 3.4.6 5.7.6M171 58c0 9.9-.2 18-.5 18-.2 0-7-6.6-15-14.7L141 46.6l3.2-3.3 3.2-3.3H171zm-34.9-11.4c1.1 1.3-3.7 6.5-36.2 39L62.5 123l-.3-5.9c-.3-5.4-.1-6.1 2.9-9 2.1-2.2 3.5-2.9 4.3-2.2s10.5-8.4 32.1-29.8c17.1-16.9 31.5-30.8 32.1-30.9s1.7.5 2.5 1.4M171 86.5c0 2.5-.3 4.5-.7 4.5s-6.5-5.8-13.7-12.8c-7.2-7.1-15.6-15.2-18.6-18l-5.5-5.1 2.7-2.8 2.7-2.8 16.6 16.3C171 82 171 82 171 86.5m9 8.9v5l-3-2.9c-2.6-2.4-3-3.6-3-7.9v-5l3 2.9c2.6 2.4 3 3.6 3 7.9m33.9 34.3c.2 9.8 1 9.3-15.5 9.3h-14.3l-.3-15c-.3-13.6.3-17.6 1.8-13.5.8 1.9 2.3 1.9 3 0 .4-.9-.6-2.5-2.5-4.1-2.7-2.3-3.1-3.2-3.1-7.7v-5.1l15.4 14.9 15.3 15zm-33.9-7.5V139h-6V99.6l3 2.9 3 2.9z"/><path fill="white" d="M120.5 84c.5 1.6.2 2-1.9 2-1.9 0-2.6.5-2.6 2 0 1.4.7 2 2.3 2 1.9 0 2.2.5 2.3 4 .1 4 .1 4-3.7 4-3.1 0-3.9.4-3.9 1.9s.7 1.8 3.7 1.7c3.6-.1 3.6-.1 3.9 4.1.2 3.9 0 4.3-2.2 4.3-1.3 0-2.4.4-2.4 1 0 .5 1.1 1 2.5 1 1.9 0 2.4.5 2.2 2.1-.1 1.2.4 2.4 1.1 2.6.7.3 1.2-.5 1.2-2.1V112h21v5c0 3.8.4 5 1.5 5s1.5-1.2 1.5-5c0-4.3.3-5 2-5 1.1 0 2-.5 2-1 0-.6-.9-1-2-1-1.9 0-2-.7-2-10s.1-10 2-10c1.3 0 2-.7 2-2s-.7-2-2-2c-1.1 0-2-.7-2-1.5s-.7-1.5-1.5-1.5-1.5.7-1.5 1.5c0 1.2-1.8 1.5-10.5 1.5-9.8 0-10.5-.1-10.5-2 0-1.1-.7-2-1.6-2-1.1 0-1.4.6-.9 2M144 94v4h-21v-8h21zm0 11.5v4.5h-21v-9h21zM12 171.2c0 8.2-1.3 14.1-3.2 14.6q-1.8.45-1.8 3.3c0 1.6.5 2.9 1 2.9.6 0 1-.9 1-2 0-1.8.7-2 8.5-2s8.5.2 8.5 2c0 1.1.5 2 1.1 2s.8-.7.5-1.6-.6-2.2-.6-3-.6-1.4-1.4-1.4c-1.1 0-1.3-1.4-.9-6.4.3-3.5.3-7.6-.1-9-.6-2.4-1-2.6-6.6-2.6h-6zm11 6.8v8h-5.6c-4.8 0-5.5-.2-5-1.8.2-.9.8-4.5 1.1-8l.7-6.2H23zm20 0c0 5.5.4 10 .9 10s3.6-3.7 6.8-8.3c5.5-7.7 5.8-8 6.1-5.3.2 1.6.2 5.3 0 8.3-.2 2.9 0 5.3.5 5.3.4 0 .7-4.5.7-10s-.2-10-.4-10c-.3 0-3.1 3.7-6.3 8.1l-5.8 8.1-.3-8.1C44.8 164.5 43 166 43 178m34.2-.3c-.1 6.2.2 10.3.8 10.3s.7-1.8.3-4.5l-.6-4.5H90v4.5c0 2.5.5 4.5 1 4.5.6 0 1-3.8 1-9.4 0-5.3-.4-9.8-1-10.1-.6-.4-1 1.2-1 3.9v4.6H78.1l-.4-4.8c-.2-2.6-.4-.1-.5 5.5m37.1-8c-.4 1-2.1 5.4-4 9.8-3.7 8.9-3.6 8.5-2.5 8.5.5 0 1.4-1.1 2-2.5 1-2.2 1.8-2.5 6-2.5s5 .3 6 2.5c.6 1.4 1.6 2.5 2.1 2.5s-1-4.5-3.3-10c-2.2-5.5-4.5-10-4.9-10s-1.1.8-1.4 1.7m3.1 4.6c3 7.2 3 7.2-1.4 7.2-2.2 0-4-.2-4-.5 0-.8 3.4-10 3.7-10 .1 0 .9 1.5 1.7 3.3m25.9-4.4c-8.1 5-4 18.1 5.7 18.1 4.1 0 9-3.1 9-5.8 0-1.2-.6-1-2.7 1-6 5.7-14.3 2.8-14.3-4.9 0-7.4 8.5-10.9 13.7-5.7 2.7 2.7 3.7 2.7 2.7 0-.8-2.1-5.5-4.6-8.6-4.6-1.3 0-3.7.9-5.5 1.9m29.7-.9c0 .5 1.6 1 3.5 1h3.5v9c0 4.9.4 9 .9 9s.7-4.1.5-9l-.4-9h3.5c1.9 0 3.5-.5 3.5-1 0-.6-3.2-1-7.5-1s-7.5.4-7.5 1m31 9c0 5.5.4 10 .8 10 .5 0 3.5-3.6 6.6-8 3.2-4.4 6-8 6.3-8s.3 3.6 0 8c-.4 4.9-.3 8 .3 8s1-4.2 1-10.1c0-6.3-.4-9.8-1-9.4-.5.3-3.3 4-6.2 8.1l-5.3 7.6-.3-8.1c-.4-11.7-2.2-10.1-2.2 1.9m36.3-9c-2.2.9-4.3 3.9-4.3 6 0 .6 1.1 2.2 2.5 3.6l2.5 2.5-2.6 3.5c-1.8 2.2-2.2 3.4-1.3 3.4.8 0 2.4-1.6 3.7-3.5 1.5-2.5 3-3.5 4.7-3.5 2.2 0 2.5.4 2.5 3.5 0 1.9.5 3.5 1 3.5.6 0 1-4 1-10v-10l-3.7.1c-2.1 0-4.8.4-6 .9m7.7 5.5c0 4.5 0 4.5-3.4 4.5-3.5 0-6.6-2.1-6.6-4.5s3.1-4.5 6.6-4.5c3.4 0 3.4 0 3.4 4.5"/></svg>